# xmcd
#
# Track frame offsets:
#	150
#	15755
#	28995
#	41452
#	62545
#	82677
#	97672
#	113290
#	134247
#	149007
#	164892
#	182767
#
# Disc length: 2747 seconds
#
# Revision: 0
# Processed by: cddbd v1.5.1PL0 Copyright (c) Steve Scherf et al.
# Submitted via: dBpowerAMP V4.0
#
DISCID=950ab90c
DTITLE=Lene Siel - Gospel
DYEAR=2004
DGENRE=Gospel
TTITLE0=We are going down under
TTITLE1=Down to the river
TTITLE2=He's got the whole world
TTITLE3=Thula Sana
TTITLE4=Go down Moses
TTITLE5=This little light of mine
TTITLE6=Hold me Jesus
TTITLE7=From a distance
TTITLE8=We shall overcome
TTITLE9=Go tell it on the mountain
TTITLE10=I believe
TTITLE11=Silent night
EXTD=
EXTT0=
EXTT1=
EXTT2=
EXTT3=
EXTT4=
EXTT5=
EXTT6=
EXTT7=
EXTT8=
EXTT9=
EXTT10=
EXTT11=
PLAYORDER=
